<svg xmlns:svg="http://www.w3.org/2000/svg" xmlns="http://www.w3.org/2000/svg" viewBox="0 0 74.083329 29.224693">
   <path fill="#8a4baf" d="M0 29.22468936h31.4622387V-.00000231H0z" />
   <g stroke-width=".26458332">
      <path fill="#fff" d="M10.32113934 16.0943298q.74890226 0 1.26575031.28479384.51684805.27424526.78054622.74890166.26369787.4746564.26369787 1.06533827 0 .26369966-.04219165.48520499-.05273963.30589101-.14767091.53794492H7.68415915q-.04219164.33753378-.04219164.4746564 0 .84383295.48520439 1.276298.48520439.42191647 1.23410665.42191647.76999823 0 1.36068159-.3902737.60123164-.39027072.83328585-1.05478969h.78054592q-.32698549.91766706-1.13917537 1.48725474-.81218988.56958769-1.91972129.56958769-1.07588805 0-1.71931104-.61177904-.6328753-.61177903-.6328753-1.68766588 0-.3269852.06328753-.68561614.15821869-.89657287.6328751-1.56109184.48520438-.66451896 1.1813673-1.01260132.70671062-.34807937 1.5189005-.34807937zm1.5083525 2.74245856q.07383561-.30589101.07383561-.60123045 0-.75945324-.48520439-1.14972396-.4746564-.3902737-1.20246299-.3902737-.8649295 0-1.56109214.54849051-.68561493.53794492-.89657317 1.5927376zM16.77646614 16.0943298q.89657347 0 1.4345172.45355923.548492.45355924.64342329 1.2024639l.28479384-1.58218902h.72780629l-1.02314812 5.75916537h-.72780658l.28479384-1.58218901q-.35862915.74890166-1.05479208 1.20246388-.69616262.45355924-1.58218781.45355924-1.0336964 0-1.63492775-.60123045-.60123134-.61177903-.60123134-1.6771203 0-.34807936.06328732-.72780448.1582189-.88602729.61177933-1.53999767.45356073-.66451896 1.1180797-1.01260132.67506695-.34807937 1.45561287-.34807937zm.11602725.65397038q-.98095677 0-1.6771194.62232762-.68561493.61177903-.8754775 1.6771173-.05273933.33753377-.05273933.55904209 0 .82273577.4746564 1.28684658.47465641.45355924 1.30794196.45355924.61177934 0 1.14972336-.28479385.54849201-.28479384.91766915-.80164159.36917713-.52739634.48520439-1.21301247.05273933-.29533944.05273933-.52739335 0-.82273876-.48520409-1.29739517-.48520439-.4746564-1.29739427-.4746564zM22.91354321 16.0943298q1.05479208 0 1.6032838.49575058.548492.49575357.53794402 1.33958652h-.73835458q.02109717-.5590391-.34808116-.91767005-.36917744-.36917654-1.12862768-.36917654-.58013538 0-.93876482.29534243-.34808147.28479384-.34808147.75945025 0 .30588802.17931488.50629917.18986256.18986256.45356043.305891.27424585.10547987.75945024.2426025.56958769.1582168.91766915.3164366.34808146.14767122.59068366.44301365.2426019.29533943.2426019.78054442 0 .11602845-.04219165.39027371-.10547897.59068485-.62232732.9598614-.51684805.35862795-1.33958592.35862795-1.06533976 0-1.6771191-.485205-.61177932-.49575057-.60123164-1.3501321h.72780659q-.04219165.56958768.36917714.92821564.42191677.35863094 1.25520262.35863094.49575238 0 .81218988-.2320539.32698549-.23205392.3902731-.60123345.02109419-.16876539.02109419-.2320539 0-.33753378-.20041055-.54849052-.18986256-.22150832-.4746564-.33753378-.27424586-.11602845-.76999794-.26369966-.548492-.1582168-.8754775-.29533944-.32698549-.14767121-.5590397-.42191647-.2320542-.27424825-.2320542-.72780748 0-.1582198.03164366-.34808236.10547926-.61177903.6328753-.98095557.52739604-.36917654 1.37122958-.36917654zM26.712772 16.16816391l1.16027135 4.79930397 2.7002675-4.79930397h.82273788l-4.89423496 8.48052676h-.83328585l1.65602342-2.78464991-1.4345169-5.69587685z" />
      <path fill="#8a4baf" d="M34.85494245 15.96775276q1.17081813 0 1.84588568.6328762.68561614.62232762.69616173 1.71931165h-1.9197198q-.02110912-.37972513-.24260249-.59068486-.22150532-.21095674-.62232762-.21095674-.4746564 0-.85438122.37972512-.36917714.36917654-.49575238 1.08643544-.04219165.21095674-.04219165.44301065 0 .50630216.2426022.76999883.2426022.25315108.64342389.25315108.4008193 0 .69616173-.21095973.29534242-.21095674.44301364-.59068186h1.9091742q-.39027371 1.09698402-1.276301 1.72985723-.8754757.62232762-2.01465137.62232762-1.13917537 0-1.8247903-.6434218-.67506696-.65397038-.67506696-1.79314575 0-.27424825.0738356-.73835607.15821861-.8754787.643423-1.51890049.4852044-.65397038 1.202463-.99150416.7172586-.34808236 1.57164012-.34808236zM41.49106654 15.96775276q.78054742 0 1.37122928.29534243.60123344.29534243.92821863.86493011.33753377.5590391.33753377 1.32903793 0 .31643661-.06328851.68561315-.1582198.8754787-.66451897 1.5189005-.50629917.64342478-1.25520382.99150714-.73835308.34807937-1.5927346.34807937-.79109301 0-1.39232645-.29534243-.60123045-.30588802-.93876423-.86492712-.32698519-.5590421-.32698519-1.32903793 0-.3269852.06328852-.68561614.15821681-.8754787.66451897-1.51890049.50629916-.65397038 1.25520083-.99150416.75945024-.34808236 1.61383177-.34808236zm-.22150532 1.56109185q-.51684776 0-.93876423.36917952-.41137088.36917654-.53794492 1.08643544-.04219135.27424526-.04219135.3902737 0 .51684776.27424526.79109302.28479384.26369667.72780748.26369667.51684776 0 .92821564-.36917654.42191647-.36917654.5484935-1.07588685.03164277-.21095973.03164277-.3902737 0-.51684776-.28479384-.79109302-.27424526-.27424824-.70671031-.27424824zM53.16366135 15.97830135q.92821564 0 1.4345148.49575357.50630216.49575059.50630216 1.40287205 0 .35863094-.05273993.6328762l-.60123045 3.4175261H52.6468136l.56958768-3.20656936q.02107923-.09493128.02107923-.28479384 0-.43246506-.25315108-.66451897-.2425995-.23205391-.68561314-.23205391-.52739634 0-.89657288.32698519-.35863094.3164396-.46410782.89657288l-.01055456.03164575v.01055456l-.5590391 3.12218369h-1.79314874l.55904209-3.20656937q.03164276-.15821681.03164276-.29533944 0-.42191946-.25315108-.65397337-.2426025-.23205391-.68561314-.23205391-.52739634 0-.90712146.33753377-.36917654.3269852-.4746564.92821863l-.54849351 3.12218369h-1.81424292l1.0336985-5.88573941h1.81424291l-.17931696 1.00205274q.32698519-.49575358.85438152-.78054742.52739634-.28479384 1.16027254-.28479384.67506755 0 1.13917537.3164366.46410782.30589102.6328762.88602729.39027072-.54849351.98095557-.8754787.59068187-.3269852 1.24465524-.3269852zM64.32962212 15.97830135q.92821563 0 1.4345178.49575357.50629916.49575059.50629916 1.40287205 0 .35863094-.05273993.6328762l-.60123045 3.4175261h-1.80369434l.56958769-3.20656936q.02107923-.09493128.02107923-.28479384 0-.43246506-.2531481-.66451897-.24260249-.23205391-.68561613-.23205391-.52739633 0-.89657287.32698519-.35862796.3164396-.46410782.89657288l-.01055457.03164575v.01055456l-.5590391 3.12218369h-1.79314575l.5590391-3.20656937q.03164277-.15821681.03164277-.29533944 0-.42191946-.2531481-.65397337-.24260249-.23205391-.68561613-.23205391-.52739633 0-.90712146.33753377-.36917653.3269852-.4746564.92821863l-.54849052 3.12218369h-1.81424292l1.0336955-5.88573941h1.81424293l-.17931398 1.00205274q.3269852-.49575358.85438153-.78054742.52739634-.28479384 1.16026955-.28479384.67506755 0 1.13917537.3164366.46410782.30589102.6328762.88602729.3902737-.54849351.98095557-.8754787.59068485-.3269852 1.24465524-.3269852zM67.96436893 14.55433214q0-.4746564.35862796-.79109301.35863094-.3269852.89657586-.3269852.42191648 0 .66451897.22150533.25314809.21095674.25314809.5590391 0 .46410782-.35862796.79109301-.34808236.3164396-.88602728.3164396-.43246206 0-.68561314-.21095973-.2426025-.22150533-.2426025-.5590391zm1.69821447 1.48725773l-1.04424408 5.8857394h-1.80369434l1.0336955-5.8857394zM72.24797928 19.7544584q-.02107923.14766823-.02107923.20040816 0 .22150831.12657405.32698519.12657404.09493128.41136788.09493128h.56958769l-.27424526 1.55054625h-.82273876q-.8860243 0-1.37122928-.36917654-.4746564-.36917953-.4746564-1.21301247 0-.33753378.05273992-.62232762l.37972513-2.1623223h-.78054443l.27424526-1.51890048h.78054443l.25315107-1.44506638h1.81424292l-.25315107 1.44506638h1.17081813l-.26369667 1.51890049h-1.18136672z" />
   </g>
</svg>